<?xml version="1.0" encoding="UTF-8"?>
<svg width="160px" height="130px" viewBox="0 0 160 130" version="1.1" xmlns="http://www.w3.org/2000/svg" xmlns:xlink="http://www.w3.org/1999/xlink">
    <title>空icon</title>
    <g id="浅色评审稿" stroke="none" stroke-width="1" fill="none" fill-rule="evenodd" opacity="0.754653">
        <g id="8、博客列表缺省页" transform="translate(-640, -460)">
            <g id="空icon" transform="translate(640, 460)">
                <rect id="矩形" fill="#000000" fill-rule="nonzero" opacity="0" x="0" y="0" width="160" height="130"></rect>
                <polygon id="路径-2" fill="#F0F2F5" points="52.3191983 30.0623495 107.691355 30.0623495 109.91601 30.6857009 136.901232 61.2500288 135.633524 62.5000265 109.599963 62.5000265 106.377533 63.7480319 105.080206 66.7546736 103.67547 72.4256601 100.170381 77.1384452 60.8611296 77.1384452 57.4860733 74.8096208 56.0014802 70.6673832 55.1794909 65.3510939 51.2394414 62.5000265 22.499958 62.5000265 37.8227395 45.1552798 50.4299671 30.6857009"></polygon>
                <path d="M79.9999502,130 C124.181974,130 160,122.164032 160,112.500033 C160,102.836034 124.181974,94.9999658 79.9999502,94.9999658 C52.273988,94.9999658 27.8420071,98.0859629 13.4899939,102.771985 C4.97000825,105.554074 0,108.899952 0,112.500033 C0,122.164032 35.8180262,130 79.9999502,130 Z" id="路径" fill="#ECEEF2" fill-rule="nonzero"></path>
                <path d="M107.266016,28.7499899 L52.7339839,28.7499899 C50.4119905,28.7499899 48.2459853,30.1600598 46.8019486,32.4840454 L21.2499603,61.4279311 L21.2499603,86.2498825 L138.74994,86.2498825 L138.74994,61.4300229 L113.073938,32.3140122 C111.754015,30.1600598 109.58801,28.7499899 107.266016,28.7499899 L107.266016,28.7499899 Z M107.266016,31.2499852 L107.681985,31.278075 C108.927998,31.4400398 110.157974,32.3299497 111.073982,33.8040684 L136.249945,62.3740206 L136.249945,83.7499852 L23.7499556,83.7499852 L23.7499556,62.3700363 L48.8020046,33.9700176 C49.9420336,32.1660924 51.3500117,31.2499852 52.7339839,31.2499852 L107.266016,31.2499852 Z" id="形状" fill="#D0D4D9" fill-rule="nonzero"></path>
                <path d="M50.3999377,62.5000265 C53.4819505,62.5000265 55.9660083,65.8080528 55.9660083,69.8200184 L55.9660083,69.8740066 C55.9660083,73.888064 58.479949,77.1280572 61.5620613,77.1280572 L98.4379387,77.1280572 C101.519951,77.1280572 104.033992,73.857982 104.033992,69.8440242 C104.033992,65.8140294 106.51795,62.5000265 109.599963,62.5000265 L137.499942,62.5000265 L137.499942,107.841901 C137.499942,113.147892 134.199885,117.499924 130.125962,117.499924 L29.8740378,117.499924 C25.8020078,117.499924 22.499958,113.147991 22.499958,107.841901 L22.499958,62.5000265 L50.3999377,62.5000265 Z" id="路径" fill="#FCFDFE" fill-rule="nonzero"></path>
                <path d="M21.2499603,61.2500288 L21.2499603,107.841901 L21.2639056,108.481891 C21.5380305,114.173868 25.2340353,118.749921 29.8740378,118.749921 L130.125962,118.749921 L130.643931,118.7299 C135.283933,118.34989 138.74994,113.525909 138.74994,107.841901 L138.74994,61.2500288 L109.599963,61.2500288 L109.119945,61.2699507 C105.612003,61.6140013 103.017877,65.0959456 102.799932,69.2699756 L102.768057,70.3500397 C102.587963,73.4920172 100.625958,75.8780595 98.4380383,75.8780595 L61.5618621,75.8780595 L61.1879286,75.858038 C59.1817964,75.6560303 57.4338516,73.3739802 57.2359278,70.4320182 L57.2018614,69.2439775 C56.951842,64.807975 54.0618761,61.2500288 50.4019299,61.2500288 L21.2479681,61.2500288 L21.2499603,61.2500288 Z M23.7499556,107.812018 L23.7499556,63.7500241 L50.3999377,63.7500241 C52.5720191,63.7500241 54.5239638,66.153996 54.7040575,69.3500615 L54.7160106,69.8740066 C54.7160106,74.2619975 57.3960001,77.9879846 60.9999658,78.3500646 L61.5000047,78.375963 L98.4399309,78.3779552 C102.105953,78.3779552 105.015941,74.8440149 105.26596,70.4580162 L105.281898,69.877991 C105.281898,66.5939705 107.127958,63.9780299 109.303924,63.7639694 L109.659927,63.7480319 L136.249945,63.7500241 L136.249945,107.842101 C136.249945,112.333984 133.631912,115.976 130.489935,116.235981 L130.073966,116.251918 L29.8739381,116.249926 C26.7299684,116.249926 23.9760689,112.839999 23.763901,108.390052 L23.7499556,107.812018 L23.7499556,107.812018 Z" id="形状" fill="#D0D4D9" fill-rule="nonzero"></path>
                <path d="M49.1741626,20.3526371 L40.7017837,12.0404278 C40.2676511,11.6146118 40.01496,11.0232901 40.000643,10.3996908 C39.9863261,9.77609147 40.2115877,9.17267231 40.6256751,8.72538707 C41.4910678,7.79138869 42.9266614,7.75296721 43.8305327,8.64735582 L52.293009,16.9596641 C52.7284737,17.38404 52.9829793,17.9745548 52.999177,18.5981457 C53.0153748,19.2217366 52.7919019,19.825939 52.3791145,20.2746058 C51.5084848,21.2106405 50.085273,21.2452926 49.1742569,20.3526371 L49.1741626,20.3526371 Z M79.0441705,16.3490048 C78.5986291,15.9211934 78.3362785,15.3238234 78.3161975,14.6914165 L78.0006188,2.44747675 C77.9712029,1.12539065 78.994192,0.0398894353 80.2832573,0.000641249615 C81.5817471,-0.0287450823 82.6540483,1.00704841 82.69346,2.31937226 L82.9996141,14.5632124 C83.0166669,15.5334122 82.4671758,16.416612 81.6124006,16.7928878 C80.747226,17.1849949 79.7428478,17.011363 79.0441705,16.3489052 L79.0441705,16.3490048 Z M107.728901,19.3704156 C107.273942,18.9545421 107.011945,18.3830111 107.000986,17.7825131 C106.98296,17.1848149 107.212724,16.6043859 107.640573,16.1667891 L115.960456,7.70055362 C116.386398,7.26705993 116.977439,7.01485342 117.600632,7.00066375 C118.223825,6.98647407 118.826845,7.21149268 119.274051,7.62510538 C120.210496,8.4951956 120.245463,9.91844343 119.352774,10.8292978 L111.032891,19.2955332 C110.603895,19.7261822 110.014497,19.9791702 109.391591,20.0000311 C108.781908,20.0000311 108.182623,19.7833061 107.729595,19.3704156 L107.728901,19.3704156 Z" id="形状结合" fill="#D0D4D9"></path>
            </g>
        </g>
    </g>
</svg>